# xmcd
#
# Track frame offsets:
#	150
#	8607
#	30860
#	49395
#	69218
#	84964
#	88387
#	108885
#	125359
#	151790
#	173566
#	190999
#	215820
#	238267
#	258137
#	278080
#	296741
#	314892
#
# Disc length: 4397 seconds
#
# Revision: 116085425
# Processed by: cddbd v1.5.1PL0 Copyright (c) Steve Scherf et al.
# Submitted via: EasyCDDAExtractor 8.0.2.1
#
DISCID=f5112b12
DTITLE=L.L. Cool J - G.O.A.T. (Greatest Of All Time)
DYEAR=2000
DGENRE=Hip-Hop
TTITLE0=Intro
TTITLE1=Imagine That
TTITLE2=Back Where I Belong (Featuring Ja Rule)
TTITLE3=Ll Cool J (Featuring Kandice Love)
TTITLE4=Take It Off
TTITLE5=Skit
TTITLE6=Fuhgidabowdit (Featuring Dmx, Method Man And Redman
TTITLE7=Farmers (Featuring Tikki Diamondz)
TTITLE8=This Is Us (Featuring Carl Thomas)
TTITLE9=Can't Think
TTITLE10=Hello (Featuring Amil)
TTITLE11=You And Me (Featuring Kelly Price)
TTITLE12=Homicide
TTITLE13=U Can't Fuck With Me (Featuring Snoop Dogg, Xzibit And Jayo Felony)
TTITLE14=Queens Is (Featuring Prodigy)
TTITLE15=The G.O.A.T.
TTITLE16=Iii Bomb (With Funkmaster Flex And Big Kap) (Bonus Track)
TTITLE17=M.I.S.S. I (Featuring Case) (Bonus Track)
EXTD=
EXTT0=
EXTT1=
EXTT2=
EXTT3=
EXTT4=
EXTT5=
EXTT6=
EXTT7=
EXTT8=
EXTT9=
EXTT10=
EXTT11=
EXTT12=
EXTT13=
EXTT14=
EXTT15=
EXTT16=
EXTT17=
PLAYORDER=
